<?xml version="1.0" encoding="UTF-8" standalone="no"?>
<!DOCTYPE svg PUBLIC "-//W3C//DTD SVG 1.1//EN" "http://www.w3.org/Graphics/SVG/1.1/DTD/svg11.dtd">
<svg width="100%" height="100%" viewBox="0 0 1418 1418" version="1.1" xmlns="http://www.w3.org/2000/svg" xmlns:xlink="http://www.w3.org/1999/xlink" xml:space="preserve" xmlns:serif="http://www.serif.com/" style="fill-rule:evenodd;clip-rule:evenodd;stroke-linecap:round;">
    <g id="Layer1">
    </g>
    <g id="Layer2">
        <g>
            <circle cx="708.661" cy="758.443" r="602.28" style="fill:rgb(238,238,238);"/>
            <path d="M708.661,341.197L708.661,151.944C740.204,120.402 771.746,120.402 803.288,151.944C834.83,120.402 866.372,120.402 897.914,151.944L708.661,341.197Z" style="fill:rgb(34,139,34);fill-rule:nonzero;"/>
            <circle cx="708.661" cy="630.877" r="301.14" style="fill:rgb(230,57,70);"/>
            <circle cx="588.205" cy="510.421" r="120.456" style="fill:rgb(230,57,70);"/>
            <circle cx="829.117" cy="510.421" r="120.456" style="fill:rgb(230,57,70);"/>
            <circle cx="708.661" cy="389.965" r="120.456" style="fill:rgb(230,57,70);"/>
            <circle cx="588.205" cy="751.333" r="120.456" style="fill:rgb(230,57,70);"/>
            <circle cx="829.117" cy="751.333" r="120.456" style="fill:rgb(230,57,70);"/>
            <circle cx="467.75" cy="510.421" r="108.41" style="fill:rgb(230,57,70);"/>
            <circle cx="949.573" cy="510.421" r="108.41" style="fill:rgb(230,57,70);"/>
            <circle cx="467.75" cy="630.877" r="108.41" style="fill:rgb(230,57,70);"/>
            <circle cx="904.929" cy="756.182" r="125.305" style="fill:rgb(230,57,70);"/>
            <circle cx="708.661" cy="871.789" r="108.41" style="fill:rgb(230,57,70);"/>
            <circle cx="588.205" cy="871.789" r="108.41" style="fill:rgb(230,57,70);"/>
            <circle cx="829.117" cy="871.789" r="108.41" style="fill:rgb(230,57,70);"/>
            <circle cx="708.661" cy="269.509" r="90.342" style="fill:rgb(230,57,70);"/>
            <circle cx="829.117" cy="389.965" r="90.342" style="fill:rgb(230,57,70);"/>
            <circle cx="610.015" cy="415.692" r="116.069" style="fill:rgb(230,57,70);"/>
            <circle cx="651.688" cy="561.875" r="30.114"/>
            <circle cx="768.889" cy="570.649" r="30.114"/>
            <path d="M619.878,635.092C680.106,695.32 738.775,721.219 799.003,660.991" style="fill:none;fill-rule:nonzero;stroke:black;stroke-width:18.07px;"/>
            <path d="M708.661,269.509L708.661,80.257C677.119,48.714 645.577,48.714 614.035,80.257C582.493,48.714 550.951,48.714 519.409,80.257L708.661,269.509Z" style="fill:rgb(34,139,34);fill-rule:nonzero;"/>
            <rect x="106.382" y="932.017" width="1204.56" height="180.684" style="fill:white;"/>
            <rect x="106.382" y="1112.7" width="1204.56" height="120.456"/>
            <path d="M226.838,932.017L226.838,1112.7" style="fill:none;fill-rule:nonzero;stroke:black;stroke-width:12.05px;stroke-linecap:butt;"/>
            <path d="M347.294,932.017L347.294,1112.7" style="fill:none;fill-rule:nonzero;stroke:black;stroke-width:12.05px;stroke-linecap:butt;"/>
            <path d="M467.75,932.017L467.75,1112.7" style="fill:none;fill-rule:nonzero;stroke:black;stroke-width:12.05px;stroke-linecap:butt;"/>
            <path d="M588.205,932.017L588.205,1112.7" style="fill:none;fill-rule:nonzero;stroke:black;stroke-width:12.05px;stroke-linecap:butt;"/>
            <path d="M708.661,932.017L708.661,1112.7" style="fill:none;fill-rule:nonzero;stroke:black;stroke-width:12.05px;stroke-linecap:butt;"/>
            <path d="M829.117,932.017L829.117,1112.7" style="fill:none;fill-rule:nonzero;stroke:black;stroke-width:12.05px;stroke-linecap:butt;"/>
            <path d="M949.573,932.017L949.573,1112.7" style="fill:none;fill-rule:nonzero;stroke:black;stroke-width:12.05px;stroke-linecap:butt;"/>
            <path d="M1070.03,932.017L1070.03,1112.7" style="fill:none;fill-rule:nonzero;stroke:black;stroke-width:12.05px;stroke-linecap:butt;"/>
            <path d="M1190.49,932.017L1190.49,1112.7" style="fill:none;fill-rule:nonzero;stroke:black;stroke-width:12.05px;stroke-linecap:butt;"/>
            <g>
                <path d="M226.838,1022.36L226.838,1112.7" style="fill:none;fill-rule:nonzero;stroke:black;stroke-width:50.19px;stroke-linecap:butt;"/>
                <path d="M347.294,1022.36L347.294,1112.7" style="fill:none;fill-rule:nonzero;stroke:black;stroke-width:50.19px;stroke-linecap:butt;"/>
                <path d="M467.75,1022.36L467.75,1112.7" style="fill:none;fill-rule:nonzero;stroke:black;stroke-width:50.19px;stroke-linecap:butt;"/>
                <path d="M708.661,1022.36L708.661,1112.7" style="fill:none;fill-rule:nonzero;stroke:black;stroke-width:50.19px;stroke-linecap:butt;"/>
                <path d="M829.117,1022.36L829.117,1112.7" style="fill:none;fill-rule:nonzero;stroke:black;stroke-width:50.19px;stroke-linecap:butt;"/>
                <path d="M1070.03,1022.36L1070.03,1112.7" style="fill:none;fill-rule:nonzero;stroke:black;stroke-width:50.19px;stroke-linecap:butt;"/>
                <path d="M1190.49,1022.36L1190.49,1112.7" style="fill:none;fill-rule:nonzero;stroke:black;stroke-width:50.19px;stroke-linecap:butt;"/>
            </g>
            <path d="M467.612,787.095C427.46,867.399 303.622,926.089 263.47,885.937" style="fill:none;fill-rule:nonzero;stroke:rgb(230,57,70);stroke-width:36.14px;stroke-linecap:butt;"/>
            <path d="M908.97,831.637C949.122,911.941 989.274,932.017 1029.43,891.865" style="fill:none;fill-rule:nonzero;stroke:rgb(230,57,70);stroke-width:36.14px;stroke-linecap:butt;"/>
            <circle cx="226.838" cy="901.903" r="60.228" style="fill:rgb(230,57,70);"/>
            <circle cx="1070.03" cy="901.903" r="60.228" style="fill:rgb(230,57,70);"/>
            <path d="M779.624,647.244C779.624,647.244 821.733,645.667 808.163,682.099" style="fill:none;stroke:black;stroke-width:7.53px;stroke-linejoin:round;stroke-miterlimit:1.5;"/>
            <path d="M609.541,647.234C609.541,647.234 601.262,617.127 631.263,623.958" style="fill:none;stroke:black;stroke-width:7.53px;stroke-linejoin:round;stroke-miterlimit:1.5;"/>
        </g>
    </g>
</svg>
